PathFileType	4	(X/Y/Z)	regression/subject18/trials/walk2/markers.trc
DataRate	CameraRate	NumFrames	NumMarkers	Units	OrigDataRate	OrigDataStartFrame	OrigNumFrames
200.00000000000426	200.00000000000426	4	64	m	200.00000000000426	107	215
Frame#	Time	CLAV			C7			RACR			RASH			RPSH			RLEL			RMEL			RUA1			RUA2			RUA3			RFAsuperior			RFAradius			RFAulna			RASI			RPSI			RCAL			RTOE			RMT5			RTH1			RTH2			RTH3			RTB1			RTB2			RTB3			RLFC			RMFC			RLMAL			RMMAL			RHJC			RKJC			REJC			RAJC			RSJC			LACR			LASH			LPSH			LLEL			LMEL			LUA1			LUA2			LUA3			LFAsuperior			LFAradius			LFAulna			LASI			LPSI			LCAL			LTOE			LMT5			LTH1			LTH2			LTH3			LTB1			LTB2			LTB3			LLFC			LMFC			LLMAL			LMMAL			LHJC			LKJC			LEJC			LAJC			LSJC			
		X1	Y1	Z1	X2	Y2	Z2	X3	Y3	Z3	X4	Y4	Z4	X5	Y5	Z5	X6	Y6	Z6	X7	Y7	Z7	X8	Y8	Z8	X9	Y9	Z9	X10	Y10	Z10	X11	Y11	Z11	X12	Y12	Z12	X13	Y13	Z13	X14	Y14	Z14	X15	Y15	Z15	X16	Y16	Z16	X17	Y17	Z17	X18	Y18	Z18	X19	Y19	Z19	X20	Y20	Z20	X21	Y21	Z21	X22	Y22	Z22	X23	Y23	Z23	X24	Y24	Z24	X25	Y25	Z25	X26	Y26	Z26	X27	Y27	Z27	X28	Y28	Z28	X29	Y29	Z29	X30	Y30	Z30	X31	Y31	Z31	X32	Y32	Z32	X33	Y33	Z33	X34	Y34	Z34	X35	Y35	Z35	X36	Y36	Z36	X37	Y37	Z37	X38	Y38	Z38	X39	Y39	Z39	X40	Y40	Z40	X41	Y41	Z41	X42	Y42	Z42	X43	Y43	Z43	X44	Y44	Z44	X45	Y45	Z45	X46	Y46	Z46	X47	Y47	Z47	X48	Y48	Z48	X49	Y49	Z49	X50	Y50	Z50	X51	Y51	Z51	X52	Y52	Z52	X53	Y53	Z53	X54	Y54	Z54	X55	Y55	Z55	X56	Y56	Z56	X57	Y57	Z57	X58	Y58	Z58	X59	Y59	Z59	X60	Y60	Z60	X61	Y61	Z61	X62	Y62	Z62	X63	Y63	Z63	X64	Y64	Z64	

108	2.975	1.462823773876184	1.420978335955354	-0.4930208480729534	1.354158625871353	1.499766835393727	-0.4897091641691124	1.435416149322564	1.472502034561837	-0.3686627610285137	1.476272180379603	1.411948778594009	-0.3316508822827418	1.379796365986416	1.435060830376512	-0.3284227690281807	1.37879066101095	1.163024878665359	-0.1996790097273057	1.362847608777171	1.133770307021524	-0.2750571227300052	1.419868232215518	1.380858458416862	-0.2954241805912516	1.383959282896266	1.236863544254219	-0.2449815550187968	1.427162834358845	1.297816127020111	-0.2675223906733909	1.437085984829638	1.095636020019132	-0.2301074636127438	1.548681746184749	0.9897111849462491	-0.2102734128624849	1.501791065828321	0.9466466079021574	-0.2116033751645038	1.435867960446206	1.008319266401851	-0.3499081394159542	1.284225439037561	1.04353608810744	-0.4410033547436463	0.9666599410769259	0.08310270740551091	-0.3975516579623208	1.213318865468443	0.04007678140609853	-0.4524772648013048	1.151223643568259	0.01184773356545422	-0.3577551575281118	1.343949728933873	0.7561681656641414	-0.3369726775223553	1.383790568967942	0.6558715415507712	-0.4087304833779723	1.290355070985229	0.6044634042190286	-0.3416253323368825	1.172763727107023	0.338838475553448	-0.3643584441485907	1.170790950031656	0.24763953492484	-0.4189146747452603	1.119722547368307	0.1900751505059531	-0.3601653533146539	1.247791762520273	0.5008812508089303	-0.3525984075001537	1.240509909166603	0.5035638089073102	-0.4646541165675389	1.058283610659872	0.1017607775604134	-0.3603068107894337	1.060544499095456	0.1006617751111186	-0.4469699904938489	1.364112741016705	0.9179054864870424	-0.4064706495962902	1.244836489199042	0.5008736870564388	-0.4107996615147711	1.373768714031672	1.142309654848996	-0.242019535449629	1.0428722357615	0.09493332523084691	-0.4093692966117315	1.431078085127114	1.422775619251522	-0.3301386726286427	1.426783394393459	1.470982985953133	-0.6157865975328785	1.464983193164619	1.409962330413396	-0.6548128223269112	1.360789313619977	1.434923346338499	-0.6513264600119852	1.325276104226372	1.159388476004946	-0.7531060045295729	1.322966393920991	1.135483909743815	-0.6742700565163492	1.399073723860211	1.378101245673317	-0.682221529589313	1.344325420574518	1.234885838234912	-0.7147855708027744	1.395106065496333	1.293386984350116	-0.7053624353717028	1.350000947341622	1.070004891329028	-0.7341720790229191	1.381415808366509	0.925136633024684	-0.7799254226106959	1.319601268454705	0.9134351416668409	-0.7700714764217709	1.441989035938259	1.011118243583282	-0.6207299116493318	1.286369607031258	1.04451654935078	-0.5358702415796626	1.589943393432913	0.04511123154534644	-0.5890087913634481	1.835808737740569	0.09817445934326693	-0.5395800153229585	1.786055621444999	0.05441935894546227	-0.6356794010606115	1.455857806454942	0.7841794008726254	-0.6421787968313361	1.553872581912358	0.7340912623417952	-0.573767027267027	1.51452877223332	0.6343100083004122	-0.6398870404650981	1.597667419665101	0.355661799635746	-0.6207042162880482	1.656370746263454	0.2843030862579783	-0.5681744686259549	1.652480421450561	0.2076231007793356	-0.6271504643573828	1.550329937441765	0.5280583212838239	-0.6303916896584409	1.546776316673082	0.5250158963152912	-0.5181650490130344	1.662162287957446	0.1004778512111417	-0.6277407005443305	1.667192373427605	0.1007317447648852	-0.5411874803985279	1.367794039220995	0.9195888295017184	-0.5693465535285261	1.550167953072691	0.5259258254983461	-0.5721177815213282	1.32754045907879	1.141390638840074	-0.7093109006690218	1.65621332036198	0.08513981755644628	-0.5785410399277228	1.41978909791213	1.42078917107091	-0.653300612672812	
109	2.98	1.469467125158024	1.420410148672686	-0.4937925102541073	1.360666467459026	1.499012828913617	-0.4905145797867715	1.441987601358276	1.471963453933337	-0.369462563324345	1.482953276140871	1.411503816339733	-0.3324188464213743	1.38643811790792	1.434451150152265	-0.3291916932216341	1.385572679834932	1.162505787596292	-0.2003936136502948	1.369725878029964	1.13320702747292	-0.2757748601525132	1.426537601648623	1.380339618510315	-0.2961864649352739	1.390714935306864	1.236331440774522	-0.2457203600534221	1.433883032428569	1.297314974496879	-0.2682454012841368	1.444026157042936	1.095239779014944	-0.230781556358813	1.555847771434934	0.9895648623492287	-0.2108865130246135	1.509055192964658	0.9463947847756874	-0.2122508818887502	1.442936295211871	1.007334728859571	-0.3504678580183862	1.291391255977093	1.042727107579823	-0.4416572088092831	0.9676791247977927	0.08582733847151988	-0.3975212211344099	1.213751065115027	0.03953741399534658	-0.4524258717317776	1.151272966291245	0.01211230617176313	-0.3577193568591081	1.350209395661207	0.7554967521689224	-0.3374643412053436	1.389855605794614	0.6549086151816058	-0.4089212706373441	1.296034014684981	0.6039942145928014	-0.341978586064763	1.176483253785457	0.3392061517050143	-0.3645253622278377	1.173597340461415	0.2479581499128855	-0.4189587581472198	1.121845392658983	0.1910258605278572	-0.3601916483263188	1.253095851124757	0.5005586451543733	-0.3528736857026019	1.24613485470607	0.5030563243358905	-0.4649540567243614	1.059463424631067	0.1033750037684846	-0.3602854414829149	1.06181477113155	0.1021318453239466	-0.4469442659966247	1.371198124679738	0.9170213566415329	-0.4072121119924111	1.250343777080483	0.5003950647835191	-0.4111025763136928	1.38060873866539	1.141769369059214	-0.2427306045918798	1.044037707941594	0.09664521467223208	-0.4093569128279838	1.437740750266645	1.422253494864213	-0.330907086504956	1.433323542119202	1.470276389904884	-0.6165842143941032	1.471623352520544	1.409297655687141	-0.6555779285895198	1.367386981628957	1.434080776204675	-0.6520926031338002	1.331668239592349	1.158704750705523	-0.7538060395611965	1.32952575109142	1.134759008534455	-0.6749778661466651	1.405630960681616	1.3773758364527	-0.6829650541473175	1.350804203581667	1.234180855795316	-0.71548690281859	1.401608530352392	1.292673957703307	-0.7061418031736015	1.356328423146679	1.069284632126735	-0.7349934915410915	1.387426824076774	0.9244027278321741	-0.780919491523465	1.325623514247456	0.9127774936753478	-0.7709061341973618	1.449307504005649	1.010478279420826	-0.6212800806791146	1.293623043837661	1.043828270358939	-0.5365207504998172	1.593410591203055	0.04388136553639833	-0.588699533635347	1.839618655898326	0.09505197691850037	-0.5389819815384368	1.78964826068088	0.05164210035746625	-0.6351251848856565	1.462812592022481	0.7832104922862704	-0.6427100019107455	1.560663929054859	0.7329622143856858	-0.5741818000273382	1.521121094457921	0.6332029304408067	-0.6402161824526221	1.603065964993236	0.3542185399224461	-0.6206641486025978	1.661281063686405	0.2825672780881956	-0.567989487903257	1.657025469622216	0.2058576959640654	-0.626901734526266	1.55666041163017	0.526875933991753	-0.6305812007635848	1.553029703304919	0.5239661226428931	-0.5183535107945714	1.666084555814492	0.09865744631282142	-0.6273822081634092	1.670997420583356	0.09896067397478547	-0.540822414077879	1.375029856459905	0.9189119307818565	-0.570082272681537	1.556491434451522	0.5248000492416585	-0.5722963777624726	1.334025188643412	1.140683823712807	-0.7100253183569808	1.659979030676169	0.08339896317623935	-0.5781769914502413	1.426410826646318	1.420047334211621	-0.6540661686731014	
110	2.985	1.476136509139727	1.419905870034707	-0.4945749340447879	1.367189185211353	1.49830697005079	-0.4913411421443369	1.448569892875832	1.471490623907636	-0.3702773151989515	1.489651427704946	1.411132492555138	-0.3331963938774735	1.393093735733107	1.433901313551393	-0.3299771816878587	1.392309266286826	1.162033867853571	-0.2011853453135368	1.376580580639612	1.132706052592602	-0.2765800301147255	1.433208340714493	1.379882409941527	-0.2969728783661146	1.397445134663714	1.235854436133571	-0.2465210966898789	1.440589448859769	1.296869817159078	-0.2690054225122001	1.450897523625519	1.09485908941962	-0.2315097293929411	1.562869998952153	0.989365166302521	-0.2115029515064799	1.51614955091734	0.9461188044007443	-0.2129222533372992	1.450089789542059	1.006384358545479	-0.3510455545223348	1.29863650824911	1.041953955114709	-0.4423183569955501	0.9688112981004167	0.08874279342693883	-0.3974791760522629	1.214204258942027	0.03897954148625193	-0.4523844681687158	1.151341432145563	0.01242870747557213	-0.3576834040163435	1.356613993415264	0.7548641438754295	-0.3379777390196115	1.396095242850149	0.6539937473006081	-0.4091274549872102	1.301907223869011	0.6035483471318812	-0.3423444568090048	1.180389661542145	0.3396182492178326	-0.3646952096316197	1.1765494510045	0.248333522199874	-0.4190079366333987	1.124108157019744	0.1920586724001834	-0.3602186957989169	1.258627852454016	0.5002462206395384	-0.3531552284363134	1.251984710299199	0.5025479142812366	-0.4652590834525467	1.060758593140028	0.1051045323083754	-0.3602599267109998	1.063186690280765	0.1037169464463135	-0.4469144423990587	1.378375072283524	0.9161746008858144	-0.4079839389679164	1.256081031844226	0.4999148537174352	-0.4114123854937755	1.387415282615135	1.141284464953845	-0.2435241191596638	1.0453105829222	0.09847905541562485	-0.4093385792280299	1.444418976900738	1.421798546750834	-0.3316883539272485	1.439890441094719	1.469622422934353	-0.6173971231401205	1.478301375375799	1.408689460513152	-0.6563530658005408	1.374019068046211	1.433279787189108	-0.6528763166357568	1.338192889079745	1.158039663287047	-0.7545280699708854	1.336205801413898	1.134056117898278	-0.6757073190091977	1.412243241289475	1.376693204954983	-0.683724488699385	1.357385539531725	1.233501756859112	-0.7162096879542427	1.408194946715377	1.292001444239134	-0.7069336869351799	1.362794481165579	1.068587349315492	-0.735828353927478	1.39359868417807	0.9236936030314528	-0.7819149850839193	1.331806254426259	0.9121390040528408	-0.7717538154755066	1.456702769111651	1.009917072908004	-0.6218471841047913	1.300952986644861	1.043191439128235	-0.5371781880082116	1.595945968251353	0.04265710084981307	-0.5884313020700654	1.842550429808627	0.09142064445493761	-0.5382612519222367	1.792337031860816	0.04848319893502157	-0.634489957461986	1.46988200913366	0.7823171091915995	-0.6432554266094488	1.567559829483402	0.7319172604613642	-0.5745911221706477	1.527841921501425	0.632178162821399	-0.6405508852913956	1.608255546688058	0.3527632202163197	-0.620612920556886	1.665776742508192	0.2806823526639569	-0.5677623625427364	1.661023736698721	0.2039652801991008	-0.6266268051279271	1.563127603694478	0.5257799092569142	-0.6307713974881762	1.559396495782685	0.5229998283886719	-0.5185437118445411	1.669214580500589	0.0966948021072675	-0.6270089446404353	1.673947203685826	0.09702361739290516	-0.5404392022492512	1.382352208302539	0.9182992234388152	-0.5708477288354326	1.562963347567501	0.5237530778243833	-0.5724697510845469	1.340637160278119	1.139998510616807	-0.7107604687537146	1.662881829960507	0.08152348847152113	-0.5778054934424067	1.43306892457159	1.419355514708848	-0.6548450258503158	
111	2.99	1.482839329892117	1.41946294020818	-0.495368634113991	1.373737606787766	1.497651172866062	-0.4921868776117088	1.455172877778848	1.47107853489482	-0.3711060048655919	1.496373957594386	1.410827032099724	-0.3339843308287571	1.399771586483637	1.433407537656719	-0.3307791662180583	1.398999342813376	1.161604970725881	-0.2020545963978919	1.383409661603195	1.132263755048006	-0.2774729343453061	1.439886827014216	1.379481311620046	-0.2977838332144607	1.404151340501147	1.235428217395445	-0.2473841559480838	1.447285599770277	1.296474855666677	-0.2698028336500559	1.457696835994343	1.094487665640891	-0.2322925233517861	1.569742015712554	0.9891018985462547	-0.2121234380329886	1.523066227548006	0.9458098629458522	-0.2136177448260001	1.457314638123353	1.005484178258935	-0.3516386542722665	1.305951428730646	1.041227116993091	-0.442993119181208	0.9700676065401501	0.09185752054454471	-0.3974274073860635	1.214678763936691	0.03840487026497264	-0.4523534798101147	1.151431035947011	0.01280275914101882	-0.3576474602483315	1.363152653172354	0.7542795772791462	-0.3385037859649341	1.402499842800578	0.6531382741819248	-0.4093425008073696	1.307966949061767	0.6031333987039408	-0.3427156699263921	1.184482451014444	0.3400807380803371	-0.3648645714636974	1.179649505564413	0.2487739026167138	-0.419060746180944	1.126515917489666	0.1931793277351212	-0.3602458846686852	1.264381994886694	0.4999504866927411	-0.3534368895184303	1.258051770278317	0.5020473400515919	-0.4655628673434151	1.06217780347618	0.1069540513350217	-0.3602311280357964	1.064668392216023	0.1054240042263522	-0.4468814717336474	1.385628015830485	0.9153769647506734	-0.4087744480426889	1.262041256144514	0.4994407815378339	-0.4117227379756826	1.394186568717975	1.140850948106364	-0.2444004145890975	1.046699620378305	0.100440321900872	-0.4093152321172728	1.451120576847555	1.421404869927898	-0.3324828714668753	1.446493409587736	1.469023563283237	-0.6182243296789749	1.485023883806007	1.408139761530731	-0.6571390632770271	1.380693323006398	1.432526707532285	-0.6536774854974724	1.344854284139271	1.157397163139372	-0.7552703625845502	1.343010412304276	1.13338006167662	-0.6764563490910392	1.418917216065421	1.376057174880941	-0.6844999277486218	1.364074470300911	1.232852671387043	-0.7169528141632064	1.414871051627717	1.291373073542342	-0.7077374284463007	1.369404086876744	1.067917273797034	-0.7366734791400592	1.399938668067236	0.9230131799250875	-0.7829067694997066	1.338156587633281	0.9115231325757022	-0.7726103696841777	1.464169175672117	1.009416774174918	-0.6224287651670759	1.30835252312047	1.042604676591261	-0.5378489152817998	1.597612921920253	0.04145689881264684	-0.5882591502679022	1.844639739412603	0.08733391429057054	-0.5374484381379088	1.794175506748114	0.04500456301033618	-0.6338152403722651	1.477062822780528	0.7814956670568833	-0.6438042721714525	1.574541818668586	0.7309398018134132	-0.5749723181492736	1.534680675106582	0.6312290678747807	-0.6408885447918312	1.613242552544377	0.3513013464142675	-0.6205702316621727	1.669868399400463	0.2786645531350225	-0.5675143116529424	1.664508915825743	0.2019703191599352	-0.626356416335346	1.569714252615262	0.5247607203685885	-0.6309665723397995	1.565838186022392	0.5220935956150798	-0.5187410583328373	1.67160698463817	0.09462175338276252	-0.6266634465654028	1.67608494134735	0.09494584590123956	-0.5400801398190578	1.389750428109548	0.917742081518553	-0.5716313104145049	1.569552534645161	0.5227681243662017	-0.5726431425831072	1.347380355172836	1.139339093474801	-0.711514384104001	1.664973446342082	0.07954051318900884	-0.5774719385530792	1.439770503059177	1.418717599358905	-0.6556376039151453	
